<mxfile host="app.diagrams.net" modified="2023-07-11T06:21:25.462Z" agent="Mozilla/5.0 (Windows NT 10.0; Win64; x64) AppleWebKit/537.36 (KHTML, like Gecko) Chrome/114.0.0.0 Safari/537.36" etag="c3ncW1QKATms0s6p4jgu" version="21.2.1" type="github">
  <diagram name="‫עמוד-1‬" id="i2Fc2xm11VRdaYwxFgzn">
    <mxGraphModel dx="1434" dy="1933" grid="1" gridSize="10" guides="1" tooltips="1" connect="1" arrows="1" fold="1" page="1" pageScale="1" pageWidth="827" pageHeight="1169" math="0" shadow="0">
      <root>
        <mxCell id="0" />
        <mxCell id="1" parent="0" />
        <mxCell id="d246zdA38Hne-XJqFqv3-11" value="&lt;b&gt;&lt;font style=&quot;font-size: 16px;&quot;&gt;Data Stage Dev Server&lt;/font&gt;&lt;/b&gt;" style="rounded=1;whiteSpace=wrap;html=1;fillColor=#d5e8d4;strokeColor=#82b366;direction=south;verticalAlign=top;" vertex="1" parent="1">
          <mxGeometry x="430" y="310" width="770" height="620" as="geometry" />
        </mxCell>
        <mxCell id="r5iFqAWKlbIohHAniu_M-1" value="&lt;b&gt;&lt;font style=&quot;font-size: 14px;&quot;&gt;Work Station Dev1&lt;/font&gt;&lt;/b&gt;" style="whiteSpace=wrap;html=1;aspect=fixed;verticalAlign=top;fillColor=#dae8fc;strokeColor=#6c8ebf;" parent="1" vertex="1">
          <mxGeometry x="24" y="-190" width="400" height="400" as="geometry" />
        </mxCell>
        <mxCell id="r5iFqAWKlbIohHAniu_M-9" style="edgeStyle=orthogonalEdgeStyle;rounded=0;orthogonalLoop=1;jettySize=auto;html=1;" parent="1" source="r5iFqAWKlbIohHAniu_M-2" target="r5iFqAWKlbIohHAniu_M-8" edge="1">
          <mxGeometry relative="1" as="geometry" />
        </mxCell>
        <mxCell id="r5iFqAWKlbIohHAniu_M-10" value="Export" style="edgeLabel;html=1;align=center;verticalAlign=middle;resizable=0;points=[];" parent="r5iFqAWKlbIohHAniu_M-9" vertex="1" connectable="0">
          <mxGeometry y="2" relative="1" as="geometry">
            <mxPoint as="offset" />
          </mxGeometry>
        </mxCell>
        <mxCell id="r5iFqAWKlbIohHAniu_M-2" value="DS Client" style="ellipse;whiteSpace=wrap;html=1;aspect=fixed;fillColor=#dae8fc;strokeColor=#6c8ebf;" parent="1" vertex="1">
          <mxGeometry x="165" y="-160" width="100" height="100" as="geometry" />
        </mxCell>
        <mxCell id="r5iFqAWKlbIohHAniu_M-5" value="" style="endArrow=none;dashed=1;html=1;rounded=0;exitX=0.5;exitY=1;exitDx=0;exitDy=0;entryX=0.5;entryY=0;entryDx=0;entryDy=0;" parent="1" source="d246zdA38Hne-XJqFqv3-11" target="d246zdA38Hne-XJqFqv3-11" edge="1">
          <mxGeometry width="50" height="50" relative="1" as="geometry">
            <mxPoint x="480" y="616" as="sourcePoint" />
            <mxPoint x="1120" y="616" as="targetPoint" />
          </mxGeometry>
        </mxCell>
        <mxCell id="r5iFqAWKlbIohHAniu_M-8" value="GIT Folder for DWH Data Stage Repository" style="shape=cylinder3;whiteSpace=wrap;html=1;boundedLbl=1;backgroundOutline=1;size=15;fillColor=#dae8fc;strokeColor=#6c8ebf;verticalAlign=top;" parent="1" vertex="1">
          <mxGeometry x="50" y="-35" width="330" height="240" as="geometry" />
        </mxCell>
        <mxCell id="r5iFqAWKlbIohHAniu_M-11" value="&lt;font style=&quot;font-size: 16px;&quot;&gt;&lt;b&gt;GIT&lt;/b&gt;&lt;/font&gt;" style="shape=cylinder3;whiteSpace=wrap;html=1;boundedLbl=1;backgroundOutline=1;size=15;verticalAlign=top;fillColor=#d5e8d4;strokeColor=#82b366;" parent="1" vertex="1">
          <mxGeometry x="430" y="-200" width="790" height="430" as="geometry" />
        </mxCell>
        <mxCell id="r5iFqAWKlbIohHAniu_M-16" value="Dev2" style="whiteSpace=wrap;html=1;aspect=fixed;verticalAlign=top;fillColor=#dae8fc;strokeColor=#6c8ebf;" parent="1" vertex="1">
          <mxGeometry x="70" y="720" width="220" height="220" as="geometry" />
        </mxCell>
        <mxCell id="r5iFqAWKlbIohHAniu_M-17" style="edgeStyle=orthogonalEdgeStyle;rounded=0;orthogonalLoop=1;jettySize=auto;html=1;" parent="1" source="r5iFqAWKlbIohHAniu_M-19" target="r5iFqAWKlbIohHAniu_M-21" edge="1">
          <mxGeometry relative="1" as="geometry" />
        </mxCell>
        <mxCell id="r5iFqAWKlbIohHAniu_M-18" value="Export" style="edgeLabel;html=1;align=center;verticalAlign=middle;resizable=0;points=[];" parent="r5iFqAWKlbIohHAniu_M-17" vertex="1" connectable="0">
          <mxGeometry y="2" relative="1" as="geometry">
            <mxPoint as="offset" />
          </mxGeometry>
        </mxCell>
        <mxCell id="r5iFqAWKlbIohHAniu_M-19" value="DS Client" style="ellipse;whiteSpace=wrap;html=1;aspect=fixed;" parent="1" vertex="1">
          <mxGeometry x="125" y="750" width="60" height="60" as="geometry" />
        </mxCell>
        <mxCell id="r5iFqAWKlbIohHAniu_M-20" value="PUSH" style="edgeLabel;html=1;align=center;verticalAlign=middle;resizable=0;points=[];" parent="1" vertex="1" connectable="0">
          <mxGeometry x="131.5" y="963.5" as="geometry" />
        </mxCell>
        <mxCell id="r5iFqAWKlbIohHAniu_M-21" value="GIT" style="shape=cylinder3;whiteSpace=wrap;html=1;boundedLbl=1;backgroundOutline=1;size=15;" parent="1" vertex="1">
          <mxGeometry x="135" y="850" width="40" height="60" as="geometry" />
        </mxCell>
        <mxCell id="r5iFqAWKlbIohHAniu_M-25" value="Azure Pipline" style="shape=cylinder3;whiteSpace=wrap;html=1;boundedLbl=1;backgroundOutline=1;size=15;" parent="1" vertex="1">
          <mxGeometry x="785" y="-450" width="60" height="80" as="geometry" />
        </mxCell>
        <mxCell id="d246zdA38Hne-XJqFqv3-3" value="DSProdDemographic" style="rounded=1;whiteSpace=wrap;html=1;verticalAlign=top;fillColor=#d5e8d4;strokeColor=#82b366;" vertex="1" parent="1">
          <mxGeometry x="710" y="350" width="185" height="240" as="geometry" />
        </mxCell>
        <mxCell id="d246zdA38Hne-XJqFqv3-6" value="DSProdGeneral" style="rounded=1;whiteSpace=wrap;html=1;verticalAlign=top;fillColor=#d5e8d4;strokeColor=#82b366;" vertex="1" parent="1">
          <mxGeometry x="510" y="350" width="185" height="240" as="geometry" />
        </mxCell>
        <mxCell id="d246zdA38Hne-XJqFqv3-7" value="DSProdTzricha" style="rounded=1;whiteSpace=wrap;html=1;verticalAlign=top;fillColor=#d5e8d4;strokeColor=#82b366;" vertex="1" parent="1">
          <mxGeometry x="910" y="350" width="185" height="240" as="geometry" />
        </mxCell>
        <mxCell id="d246zdA38Hne-XJqFqv3-59" value="&lt;font style=&quot;font-size: 12px;&quot;&gt;DWH Data Stage Repository&lt;/font&gt;" style="rounded=1;whiteSpace=wrap;html=1;fillColor=#d5e8d4;strokeColor=#82b366;verticalAlign=top;" vertex="1" parent="1">
          <mxGeometry x="435" y="-140" width="780" height="340" as="geometry" />
        </mxCell>
        <mxCell id="d246zdA38Hne-XJqFqv3-78" value="" style="group" vertex="1" connectable="0" parent="1">
          <mxGeometry x="458" y="627" width="360" height="280" as="geometry" />
        </mxCell>
        <mxCell id="d246zdA38Hne-XJqFqv3-13" value="Dev1 Folder" style="rounded=1;whiteSpace=wrap;html=1;fillColor=#f8cecc;strokeColor=#b85450;verticalAlign=top;fontStyle=1;fontSize=14;container=0;" vertex="1" parent="d246zdA38Hne-XJqFqv3-78">
          <mxGeometry width="360" height="280" as="geometry" />
        </mxCell>
        <mxCell id="d246zdA38Hne-XJqFqv3-9" value="Dev1 &lt;br&gt;DSProdGeneral" style="rounded=1;whiteSpace=wrap;html=1;verticalAlign=top;fillColor=#f8cecc;strokeColor=#b85450;container=0;" vertex="1" parent="d246zdA38Hne-XJqFqv3-78">
          <mxGeometry x="8" y="28" width="100" height="240" as="geometry" />
        </mxCell>
        <mxCell id="d246zdA38Hne-XJqFqv3-12" value="Dev1&amp;nbsp;&lt;br&gt;DSProdDemographic" style="rounded=1;whiteSpace=wrap;html=1;verticalAlign=top;fillColor=#f8cecc;strokeColor=#b85450;container=0;" vertex="1" parent="d246zdA38Hne-XJqFqv3-78">
          <mxGeometry x="118" y="28" width="120" height="240" as="geometry" />
        </mxCell>
        <mxCell id="d246zdA38Hne-XJqFqv3-14" value="Dev1&lt;br&gt;DSProdTzricha" style="rounded=1;whiteSpace=wrap;html=1;verticalAlign=top;fillColor=#f8cecc;strokeColor=#b85450;container=0;" vertex="1" parent="d246zdA38Hne-XJqFqv3-78">
          <mxGeometry x="249.5" y="28" width="100" height="240" as="geometry" />
        </mxCell>
        <mxCell id="r5iFqAWKlbIohHAniu_M-6" value="Job Collection1" style="rounded=1;whiteSpace=wrap;html=1;container=0;" parent="d246zdA38Hne-XJqFqv3-78" vertex="1">
          <mxGeometry x="23" y="81" width="70" height="40" as="geometry" />
        </mxCell>
        <mxCell id="d246zdA38Hne-XJqFqv3-28" value="Job Collection2" style="rounded=1;whiteSpace=wrap;html=1;container=0;" vertex="1" parent="d246zdA38Hne-XJqFqv3-78">
          <mxGeometry x="23" y="127" width="70" height="40" as="geometry" />
        </mxCell>
        <mxCell id="d246zdA38Hne-XJqFqv3-29" value="Job Collection3" style="rounded=1;whiteSpace=wrap;html=1;container=0;" vertex="1" parent="d246zdA38Hne-XJqFqv3-78">
          <mxGeometry x="23" y="175" width="70" height="40" as="geometry" />
        </mxCell>
        <mxCell id="d246zdA38Hne-XJqFqv3-30" value="Job Collection4" style="rounded=1;whiteSpace=wrap;html=1;container=0;" vertex="1" parent="d246zdA38Hne-XJqFqv3-78">
          <mxGeometry x="23" y="223" width="70" height="40" as="geometry" />
        </mxCell>
        <mxCell id="d246zdA38Hne-XJqFqv3-31" value="Job Collection5" style="rounded=1;whiteSpace=wrap;html=1;container=0;" vertex="1" parent="d246zdA38Hne-XJqFqv3-78">
          <mxGeometry x="143" y="81" width="70" height="40" as="geometry" />
        </mxCell>
        <mxCell id="d246zdA38Hne-XJqFqv3-32" value="Job Collection6" style="rounded=1;whiteSpace=wrap;html=1;container=0;" vertex="1" parent="d246zdA38Hne-XJqFqv3-78">
          <mxGeometry x="143" y="127" width="70" height="40" as="geometry" />
        </mxCell>
        <mxCell id="d246zdA38Hne-XJqFqv3-33" value="Job Collection7" style="rounded=1;whiteSpace=wrap;html=1;container=0;" vertex="1" parent="d246zdA38Hne-XJqFqv3-78">
          <mxGeometry x="143" y="175" width="70" height="40" as="geometry" />
        </mxCell>
        <mxCell id="d246zdA38Hne-XJqFqv3-34" value="Job Collection8" style="rounded=1;whiteSpace=wrap;html=1;container=0;" vertex="1" parent="d246zdA38Hne-XJqFqv3-78">
          <mxGeometry x="143" y="223" width="70" height="40" as="geometry" />
        </mxCell>
        <mxCell id="d246zdA38Hne-XJqFqv3-35" value="Job Collection9" style="rounded=1;whiteSpace=wrap;html=1;container=0;" vertex="1" parent="d246zdA38Hne-XJqFqv3-78">
          <mxGeometry x="264.5" y="81" width="70" height="40" as="geometry" />
        </mxCell>
        <mxCell id="d246zdA38Hne-XJqFqv3-36" value="Job Collection10" style="rounded=1;whiteSpace=wrap;html=1;container=0;" vertex="1" parent="d246zdA38Hne-XJqFqv3-78">
          <mxGeometry x="264.5" y="127" width="70" height="40" as="geometry" />
        </mxCell>
        <mxCell id="d246zdA38Hne-XJqFqv3-37" value="Job Collection11" style="rounded=1;whiteSpace=wrap;html=1;container=0;" vertex="1" parent="d246zdA38Hne-XJqFqv3-78">
          <mxGeometry x="264.5" y="175" width="70" height="40" as="geometry" />
        </mxCell>
        <mxCell id="d246zdA38Hne-XJqFqv3-38" value="Job Collection12" style="rounded=1;whiteSpace=wrap;html=1;container=0;" vertex="1" parent="d246zdA38Hne-XJqFqv3-78">
          <mxGeometry x="264.5" y="223" width="70" height="40" as="geometry" />
        </mxCell>
        <mxCell id="d246zdA38Hne-XJqFqv3-79" value="" style="group" vertex="1" connectable="0" parent="1">
          <mxGeometry x="820" y="628" width="360" height="280" as="geometry" />
        </mxCell>
        <mxCell id="d246zdA38Hne-XJqFqv3-80" value="Dev2 Folder" style="rounded=1;whiteSpace=wrap;html=1;fillColor=#f8cecc;strokeColor=#b85450;verticalAlign=top;fontStyle=1;fontSize=14;container=0;" vertex="1" parent="d246zdA38Hne-XJqFqv3-79">
          <mxGeometry width="360" height="280" as="geometry" />
        </mxCell>
        <mxCell id="d246zdA38Hne-XJqFqv3-81" value="Dev2&lt;br&gt;DSProdGeneral" style="rounded=1;whiteSpace=wrap;html=1;verticalAlign=top;fillColor=#f8cecc;strokeColor=#b85450;container=0;" vertex="1" parent="d246zdA38Hne-XJqFqv3-79">
          <mxGeometry x="8" y="28" width="100" height="240" as="geometry" />
        </mxCell>
        <mxCell id="d246zdA38Hne-XJqFqv3-82" value="Dev2&amp;nbsp;&lt;br&gt;DSProdDemographic" style="rounded=1;whiteSpace=wrap;html=1;verticalAlign=top;fillColor=#f8cecc;strokeColor=#b85450;container=0;" vertex="1" parent="d246zdA38Hne-XJqFqv3-79">
          <mxGeometry x="118" y="28" width="120" height="240" as="geometry" />
        </mxCell>
        <mxCell id="d246zdA38Hne-XJqFqv3-83" value="Dev2&lt;br&gt;DSProdTzricha" style="rounded=1;whiteSpace=wrap;html=1;verticalAlign=top;fillColor=#f8cecc;strokeColor=#b85450;container=0;" vertex="1" parent="d246zdA38Hne-XJqFqv3-79">
          <mxGeometry x="249.5" y="28" width="100" height="240" as="geometry" />
        </mxCell>
        <mxCell id="d246zdA38Hne-XJqFqv3-84" value="Job Collection1" style="rounded=1;whiteSpace=wrap;html=1;container=0;" vertex="1" parent="d246zdA38Hne-XJqFqv3-79">
          <mxGeometry x="23" y="81" width="70" height="40" as="geometry" />
        </mxCell>
        <mxCell id="d246zdA38Hne-XJqFqv3-85" value="Job Collection2" style="rounded=1;whiteSpace=wrap;html=1;container=0;" vertex="1" parent="d246zdA38Hne-XJqFqv3-79">
          <mxGeometry x="23" y="127" width="70" height="40" as="geometry" />
        </mxCell>
        <mxCell id="d246zdA38Hne-XJqFqv3-86" value="Job Collection3" style="rounded=1;whiteSpace=wrap;html=1;container=0;" vertex="1" parent="d246zdA38Hne-XJqFqv3-79">
          <mxGeometry x="23" y="175" width="70" height="40" as="geometry" />
        </mxCell>
        <mxCell id="d246zdA38Hne-XJqFqv3-87" value="Job Collection4" style="rounded=1;whiteSpace=wrap;html=1;container=0;" vertex="1" parent="d246zdA38Hne-XJqFqv3-79">
          <mxGeometry x="23" y="223" width="70" height="40" as="geometry" />
        </mxCell>
        <mxCell id="d246zdA38Hne-XJqFqv3-88" value="Job Collection5" style="rounded=1;whiteSpace=wrap;html=1;container=0;" vertex="1" parent="d246zdA38Hne-XJqFqv3-79">
          <mxGeometry x="143" y="81" width="70" height="40" as="geometry" />
        </mxCell>
        <mxCell id="d246zdA38Hne-XJqFqv3-89" value="Job Collection6" style="rounded=1;whiteSpace=wrap;html=1;container=0;" vertex="1" parent="d246zdA38Hne-XJqFqv3-79">
          <mxGeometry x="143" y="127" width="70" height="40" as="geometry" />
        </mxCell>
        <mxCell id="d246zdA38Hne-XJqFqv3-90" value="Job Collection7" style="rounded=1;whiteSpace=wrap;html=1;container=0;" vertex="1" parent="d246zdA38Hne-XJqFqv3-79">
          <mxGeometry x="143" y="175" width="70" height="40" as="geometry" />
        </mxCell>
        <mxCell id="d246zdA38Hne-XJqFqv3-91" value="Job Collection8" style="rounded=1;whiteSpace=wrap;html=1;container=0;" vertex="1" parent="d246zdA38Hne-XJqFqv3-79">
          <mxGeometry x="143" y="223" width="70" height="40" as="geometry" />
        </mxCell>
        <mxCell id="d246zdA38Hne-XJqFqv3-92" value="Job Collection9" style="rounded=1;whiteSpace=wrap;html=1;container=0;" vertex="1" parent="d246zdA38Hne-XJqFqv3-79">
          <mxGeometry x="264.5" y="81" width="70" height="40" as="geometry" />
        </mxCell>
        <mxCell id="d246zdA38Hne-XJqFqv3-93" value="Job Collection10" style="rounded=1;whiteSpace=wrap;html=1;container=0;" vertex="1" parent="d246zdA38Hne-XJqFqv3-79">
          <mxGeometry x="264.5" y="127" width="70" height="40" as="geometry" />
        </mxCell>
        <mxCell id="d246zdA38Hne-XJqFqv3-94" value="Job Collection11" style="rounded=1;whiteSpace=wrap;html=1;container=0;" vertex="1" parent="d246zdA38Hne-XJqFqv3-79">
          <mxGeometry x="264.5" y="175" width="70" height="40" as="geometry" />
        </mxCell>
        <mxCell id="d246zdA38Hne-XJqFqv3-95" value="Job Collection12" style="rounded=1;whiteSpace=wrap;html=1;container=0;" vertex="1" parent="d246zdA38Hne-XJqFqv3-79">
          <mxGeometry x="264.5" y="223" width="70" height="40" as="geometry" />
        </mxCell>
        <mxCell id="d246zdA38Hne-XJqFqv3-96" value="" style="group" vertex="1" connectable="0" parent="1">
          <mxGeometry x="446" y="-100" width="360" height="280" as="geometry" />
        </mxCell>
        <mxCell id="d246zdA38Hne-XJqFqv3-97" value="Branch Dev" style="rounded=1;whiteSpace=wrap;html=1;fillColor=#f8cecc;strokeColor=#b85450;verticalAlign=top;fontStyle=1;fontSize=14;container=0;" vertex="1" parent="d246zdA38Hne-XJqFqv3-96">
          <mxGeometry width="360" height="280" as="geometry" />
        </mxCell>
        <mxCell id="d246zdA38Hne-XJqFqv3-98" value="DSProdGeneral" style="rounded=1;whiteSpace=wrap;html=1;verticalAlign=top;fillColor=#f8cecc;strokeColor=#b85450;container=0;" vertex="1" parent="d246zdA38Hne-XJqFqv3-96">
          <mxGeometry x="8" y="28" width="100" height="240" as="geometry" />
        </mxCell>
        <mxCell id="d246zdA38Hne-XJqFqv3-99" value="DSProdDemographic" style="rounded=1;whiteSpace=wrap;html=1;verticalAlign=top;fillColor=#f8cecc;strokeColor=#b85450;container=0;" vertex="1" parent="d246zdA38Hne-XJqFqv3-96">
          <mxGeometry x="118" y="28" width="120" height="240" as="geometry" />
        </mxCell>
        <mxCell id="d246zdA38Hne-XJqFqv3-100" value="DSProdTzricha" style="rounded=1;whiteSpace=wrap;html=1;verticalAlign=top;fillColor=#f8cecc;strokeColor=#b85450;container=0;" vertex="1" parent="d246zdA38Hne-XJqFqv3-96">
          <mxGeometry x="249.5" y="28" width="100" height="240" as="geometry" />
        </mxCell>
        <mxCell id="d246zdA38Hne-XJqFqv3-101" value="Job Collection1" style="rounded=1;whiteSpace=wrap;html=1;container=0;" vertex="1" parent="d246zdA38Hne-XJqFqv3-96">
          <mxGeometry x="23" y="81" width="70" height="40" as="geometry" />
        </mxCell>
        <mxCell id="d246zdA38Hne-XJqFqv3-102" value="Job Collection2" style="rounded=1;whiteSpace=wrap;html=1;container=0;" vertex="1" parent="d246zdA38Hne-XJqFqv3-96">
          <mxGeometry x="23" y="127" width="70" height="40" as="geometry" />
        </mxCell>
        <mxCell id="d246zdA38Hne-XJqFqv3-103" value="Job Collection3" style="rounded=1;whiteSpace=wrap;html=1;container=0;" vertex="1" parent="d246zdA38Hne-XJqFqv3-96">
          <mxGeometry x="23" y="175" width="70" height="40" as="geometry" />
        </mxCell>
        <mxCell id="d246zdA38Hne-XJqFqv3-104" value="Job Collection4" style="rounded=1;whiteSpace=wrap;html=1;container=0;" vertex="1" parent="d246zdA38Hne-XJqFqv3-96">
          <mxGeometry x="23" y="223" width="70" height="40" as="geometry" />
        </mxCell>
        <mxCell id="d246zdA38Hne-XJqFqv3-105" value="Job Collection5" style="rounded=1;whiteSpace=wrap;html=1;container=0;" vertex="1" parent="d246zdA38Hne-XJqFqv3-96">
          <mxGeometry x="143" y="81" width="70" height="40" as="geometry" />
        </mxCell>
        <mxCell id="d246zdA38Hne-XJqFqv3-106" value="Job Collection6" style="rounded=1;whiteSpace=wrap;html=1;container=0;" vertex="1" parent="d246zdA38Hne-XJqFqv3-96">
          <mxGeometry x="143" y="127" width="70" height="40" as="geometry" />
        </mxCell>
        <mxCell id="d246zdA38Hne-XJqFqv3-107" value="Job Collection7" style="rounded=1;whiteSpace=wrap;html=1;container=0;" vertex="1" parent="d246zdA38Hne-XJqFqv3-96">
          <mxGeometry x="143" y="175" width="70" height="40" as="geometry" />
        </mxCell>
        <mxCell id="d246zdA38Hne-XJqFqv3-108" value="Job Collection8" style="rounded=1;whiteSpace=wrap;html=1;container=0;" vertex="1" parent="d246zdA38Hne-XJqFqv3-96">
          <mxGeometry x="143" y="223" width="70" height="40" as="geometry" />
        </mxCell>
        <mxCell id="d246zdA38Hne-XJqFqv3-109" value="Job Collection9" style="rounded=1;whiteSpace=wrap;html=1;container=0;" vertex="1" parent="d246zdA38Hne-XJqFqv3-96">
          <mxGeometry x="264.5" y="81" width="70" height="40" as="geometry" />
        </mxCell>
        <mxCell id="d246zdA38Hne-XJqFqv3-110" value="Job Collection10" style="rounded=1;whiteSpace=wrap;html=1;container=0;" vertex="1" parent="d246zdA38Hne-XJqFqv3-96">
          <mxGeometry x="264.5" y="127" width="70" height="40" as="geometry" />
        </mxCell>
        <mxCell id="d246zdA38Hne-XJqFqv3-111" value="Job Collection11" style="rounded=1;whiteSpace=wrap;html=1;container=0;" vertex="1" parent="d246zdA38Hne-XJqFqv3-96">
          <mxGeometry x="264.5" y="175" width="70" height="40" as="geometry" />
        </mxCell>
        <mxCell id="d246zdA38Hne-XJqFqv3-112" value="Job Collection12" style="rounded=1;whiteSpace=wrap;html=1;container=0;" vertex="1" parent="d246zdA38Hne-XJqFqv3-96">
          <mxGeometry x="264.5" y="223" width="70" height="40" as="geometry" />
        </mxCell>
        <mxCell id="d246zdA38Hne-XJqFqv3-113" value="" style="group" vertex="1" connectable="0" parent="1">
          <mxGeometry x="845" y="-101" width="360" height="280" as="geometry" />
        </mxCell>
        <mxCell id="d246zdA38Hne-XJqFqv3-114" value="Branch Prod" style="rounded=1;whiteSpace=wrap;html=1;fillColor=#f8cecc;strokeColor=#b85450;verticalAlign=top;fontStyle=1;fontSize=14;container=0;" vertex="1" parent="d246zdA38Hne-XJqFqv3-113">
          <mxGeometry width="360" height="280" as="geometry" />
        </mxCell>
        <mxCell id="d246zdA38Hne-XJqFqv3-115" value="DSProdGeneral" style="rounded=1;whiteSpace=wrap;html=1;verticalAlign=top;fillColor=#f8cecc;strokeColor=#b85450;container=0;" vertex="1" parent="d246zdA38Hne-XJqFqv3-113">
          <mxGeometry x="8" y="28" width="100" height="240" as="geometry" />
        </mxCell>
        <mxCell id="d246zdA38Hne-XJqFqv3-116" value="DSProdDemographic" style="rounded=1;whiteSpace=wrap;html=1;verticalAlign=top;fillColor=#f8cecc;strokeColor=#b85450;container=0;" vertex="1" parent="d246zdA38Hne-XJqFqv3-113">
          <mxGeometry x="118" y="28" width="120" height="240" as="geometry" />
        </mxCell>
        <mxCell id="d246zdA38Hne-XJqFqv3-117" value="DSProdTzricha" style="rounded=1;whiteSpace=wrap;html=1;verticalAlign=top;fillColor=#f8cecc;strokeColor=#b85450;container=0;" vertex="1" parent="d246zdA38Hne-XJqFqv3-113">
          <mxGeometry x="249.5" y="28" width="100" height="240" as="geometry" />
        </mxCell>
        <mxCell id="d246zdA38Hne-XJqFqv3-118" value="Job Collection1" style="rounded=1;whiteSpace=wrap;html=1;container=0;" vertex="1" parent="d246zdA38Hne-XJqFqv3-113">
          <mxGeometry x="23" y="81" width="70" height="40" as="geometry" />
        </mxCell>
        <mxCell id="d246zdA38Hne-XJqFqv3-119" value="Job Collection2" style="rounded=1;whiteSpace=wrap;html=1;container=0;" vertex="1" parent="d246zdA38Hne-XJqFqv3-113">
          <mxGeometry x="23" y="127" width="70" height="40" as="geometry" />
        </mxCell>
        <mxCell id="d246zdA38Hne-XJqFqv3-120" value="Job Collection3" style="rounded=1;whiteSpace=wrap;html=1;container=0;" vertex="1" parent="d246zdA38Hne-XJqFqv3-113">
          <mxGeometry x="23" y="175" width="70" height="40" as="geometry" />
        </mxCell>
        <mxCell id="d246zdA38Hne-XJqFqv3-121" value="Job Collection4" style="rounded=1;whiteSpace=wrap;html=1;container=0;" vertex="1" parent="d246zdA38Hne-XJqFqv3-113">
          <mxGeometry x="23" y="223" width="70" height="40" as="geometry" />
        </mxCell>
        <mxCell id="d246zdA38Hne-XJqFqv3-122" value="Job Collection5" style="rounded=1;whiteSpace=wrap;html=1;container=0;" vertex="1" parent="d246zdA38Hne-XJqFqv3-113">
          <mxGeometry x="143" y="81" width="70" height="40" as="geometry" />
        </mxCell>
        <mxCell id="d246zdA38Hne-XJqFqv3-123" value="Job Collection6" style="rounded=1;whiteSpace=wrap;html=1;container=0;" vertex="1" parent="d246zdA38Hne-XJqFqv3-113">
          <mxGeometry x="143" y="127" width="70" height="40" as="geometry" />
        </mxCell>
        <mxCell id="d246zdA38Hne-XJqFqv3-124" value="Job Collection7" style="rounded=1;whiteSpace=wrap;html=1;container=0;" vertex="1" parent="d246zdA38Hne-XJqFqv3-113">
          <mxGeometry x="143" y="175" width="70" height="40" as="geometry" />
        </mxCell>
        <mxCell id="d246zdA38Hne-XJqFqv3-125" value="Job Collection8" style="rounded=1;whiteSpace=wrap;html=1;container=0;" vertex="1" parent="d246zdA38Hne-XJqFqv3-113">
          <mxGeometry x="143" y="223" width="70" height="40" as="geometry" />
        </mxCell>
        <mxCell id="d246zdA38Hne-XJqFqv3-126" value="Job Collection9" style="rounded=1;whiteSpace=wrap;html=1;container=0;" vertex="1" parent="d246zdA38Hne-XJqFqv3-113">
          <mxGeometry x="264.5" y="81" width="70" height="40" as="geometry" />
        </mxCell>
        <mxCell id="d246zdA38Hne-XJqFqv3-127" value="Job Collection10" style="rounded=1;whiteSpace=wrap;html=1;container=0;" vertex="1" parent="d246zdA38Hne-XJqFqv3-113">
          <mxGeometry x="264.5" y="127" width="70" height="40" as="geometry" />
        </mxCell>
        <mxCell id="d246zdA38Hne-XJqFqv3-128" value="Job Collection11" style="rounded=1;whiteSpace=wrap;html=1;container=0;" vertex="1" parent="d246zdA38Hne-XJqFqv3-113">
          <mxGeometry x="264.5" y="175" width="70" height="40" as="geometry" />
        </mxCell>
        <mxCell id="d246zdA38Hne-XJqFqv3-129" value="Job Collection12" style="rounded=1;whiteSpace=wrap;html=1;container=0;" vertex="1" parent="d246zdA38Hne-XJqFqv3-113">
          <mxGeometry x="264.5" y="223" width="70" height="40" as="geometry" />
        </mxCell>
        <mxCell id="d246zdA38Hne-XJqFqv3-138" value="" style="group" vertex="1" connectable="0" parent="1">
          <mxGeometry x="54" y="70" width="320" height="40" as="geometry" />
        </mxCell>
        <mxCell id="d246zdA38Hne-XJqFqv3-133" value="DSProdGeneral" style="rounded=1;whiteSpace=wrap;html=1;fillColor=#dae8fc;strokeColor=#6c8ebf;verticalAlign=top;" vertex="1" parent="d246zdA38Hne-XJqFqv3-138">
          <mxGeometry width="320" height="40" as="geometry" />
        </mxCell>
        <mxCell id="d246zdA38Hne-XJqFqv3-134" value="&lt;font style=&quot;font-size: 8px;&quot;&gt;Job Collection1&lt;/font&gt;" style="rounded=1;whiteSpace=wrap;html=1;container=0;fillColor=#f5f5f5;fontColor=#333333;strokeColor=#666666;" vertex="1" parent="d246zdA38Hne-XJqFqv3-138">
          <mxGeometry x="6" y="7.5" width="50" height="25" as="geometry" />
        </mxCell>
        <mxCell id="d246zdA38Hne-XJqFqv3-135" value="&lt;font style=&quot;font-size: 8px;&quot;&gt;Job Collection2&lt;/font&gt;" style="rounded=1;whiteSpace=wrap;html=1;container=0;fillColor=#f5f5f5;fontColor=#333333;strokeColor=#666666;" vertex="1" parent="d246zdA38Hne-XJqFqv3-138">
          <mxGeometry x="61" y="7.5" width="50" height="25" as="geometry" />
        </mxCell>
        <mxCell id="d246zdA38Hne-XJqFqv3-136" value="&lt;font style=&quot;font-size: 8px;&quot;&gt;Job Collection3&lt;/font&gt;" style="rounded=1;whiteSpace=wrap;html=1;container=0;fillColor=#f5f5f5;fontColor=#333333;strokeColor=#666666;" vertex="1" parent="d246zdA38Hne-XJqFqv3-138">
          <mxGeometry x="211" y="7.5" width="50" height="25" as="geometry" />
        </mxCell>
        <mxCell id="d246zdA38Hne-XJqFqv3-137" value="&lt;font style=&quot;font-size: 8px;&quot;&gt;Job Collection4&lt;/font&gt;" style="rounded=1;whiteSpace=wrap;html=1;container=0;fillColor=#f5f5f5;fontColor=#333333;strokeColor=#666666;" vertex="1" parent="d246zdA38Hne-XJqFqv3-138">
          <mxGeometry x="266" y="7.5" width="50" height="25" as="geometry" />
        </mxCell>
        <mxCell id="d246zdA38Hne-XJqFqv3-147" value="" style="group" vertex="1" connectable="0" parent="1">
          <mxGeometry x="54" y="110" width="320" height="40" as="geometry" />
        </mxCell>
        <mxCell id="d246zdA38Hne-XJqFqv3-148" value="DSProdGeneral" style="rounded=1;whiteSpace=wrap;html=1;fillColor=#dae8fc;strokeColor=#6c8ebf;verticalAlign=top;" vertex="1" parent="d246zdA38Hne-XJqFqv3-147">
          <mxGeometry width="320" height="40" as="geometry" />
        </mxCell>
        <mxCell id="d246zdA38Hne-XJqFqv3-149" value="&lt;font style=&quot;font-size: 8px;&quot;&gt;Job Collection1&lt;/font&gt;" style="rounded=1;whiteSpace=wrap;html=1;container=0;fillColor=#f5f5f5;fontColor=#333333;strokeColor=#666666;" vertex="1" parent="d246zdA38Hne-XJqFqv3-147">
          <mxGeometry x="6" y="7.5" width="50" height="25" as="geometry" />
        </mxCell>
        <mxCell id="d246zdA38Hne-XJqFqv3-150" value="&lt;font style=&quot;font-size: 8px;&quot;&gt;Job Collection2&lt;/font&gt;" style="rounded=1;whiteSpace=wrap;html=1;container=0;fillColor=#f5f5f5;fontColor=#333333;strokeColor=#666666;" vertex="1" parent="d246zdA38Hne-XJqFqv3-147">
          <mxGeometry x="61" y="7.5" width="50" height="25" as="geometry" />
        </mxCell>
        <mxCell id="d246zdA38Hne-XJqFqv3-151" value="&lt;font style=&quot;font-size: 8px;&quot;&gt;Job Collection3&lt;/font&gt;" style="rounded=1;whiteSpace=wrap;html=1;container=0;fillColor=#f5f5f5;fontColor=#333333;strokeColor=#666666;" vertex="1" parent="d246zdA38Hne-XJqFqv3-147">
          <mxGeometry x="211" y="7.5" width="50" height="25" as="geometry" />
        </mxCell>
        <mxCell id="d246zdA38Hne-XJqFqv3-152" value="&lt;font style=&quot;font-size: 8px;&quot;&gt;Job Collection4&lt;/font&gt;" style="rounded=1;whiteSpace=wrap;html=1;container=0;fillColor=#f5f5f5;fontColor=#333333;strokeColor=#666666;" vertex="1" parent="d246zdA38Hne-XJqFqv3-147">
          <mxGeometry x="266" y="7.5" width="50" height="25" as="geometry" />
        </mxCell>
        <mxCell id="d246zdA38Hne-XJqFqv3-153" value="" style="group" vertex="1" connectable="0" parent="1">
          <mxGeometry x="54" y="150" width="320" height="40" as="geometry" />
        </mxCell>
        <mxCell id="d246zdA38Hne-XJqFqv3-154" value="DSProdGeneral" style="rounded=1;whiteSpace=wrap;html=1;fillColor=#dae8fc;strokeColor=#6c8ebf;verticalAlign=top;" vertex="1" parent="d246zdA38Hne-XJqFqv3-153">
          <mxGeometry width="320" height="40" as="geometry" />
        </mxCell>
        <mxCell id="d246zdA38Hne-XJqFqv3-155" value="&lt;font style=&quot;font-size: 8px;&quot;&gt;Job Collection1&lt;/font&gt;" style="rounded=1;whiteSpace=wrap;html=1;container=0;fillColor=#f5f5f5;fontColor=#333333;strokeColor=#666666;" vertex="1" parent="d246zdA38Hne-XJqFqv3-153">
          <mxGeometry x="6" y="7.5" width="50" height="25" as="geometry" />
        </mxCell>
        <mxCell id="d246zdA38Hne-XJqFqv3-156" value="&lt;font style=&quot;font-size: 8px;&quot;&gt;Job Collection2&lt;/font&gt;" style="rounded=1;whiteSpace=wrap;html=1;container=0;fillColor=#f5f5f5;fontColor=#333333;strokeColor=#666666;" vertex="1" parent="d246zdA38Hne-XJqFqv3-153">
          <mxGeometry x="61" y="7.5" width="50" height="25" as="geometry" />
        </mxCell>
        <mxCell id="d246zdA38Hne-XJqFqv3-157" value="&lt;font style=&quot;font-size: 8px;&quot;&gt;Job Collection3&lt;/font&gt;" style="rounded=1;whiteSpace=wrap;html=1;container=0;fillColor=#f5f5f5;fontColor=#333333;strokeColor=#666666;" vertex="1" parent="d246zdA38Hne-XJqFqv3-153">
          <mxGeometry x="211" y="7.5" width="50" height="25" as="geometry" />
        </mxCell>
        <mxCell id="d246zdA38Hne-XJqFqv3-158" value="&lt;font style=&quot;font-size: 8px;&quot;&gt;Job Collection4&lt;/font&gt;" style="rounded=1;whiteSpace=wrap;html=1;container=0;fillColor=#f5f5f5;fontColor=#333333;strokeColor=#666666;" vertex="1" parent="d246zdA38Hne-XJqFqv3-153">
          <mxGeometry x="266" y="7.5" width="50" height="25" as="geometry" />
        </mxCell>
        <mxCell id="d246zdA38Hne-XJqFqv3-165" value="" style="group" vertex="1" connectable="0" parent="1">
          <mxGeometry x="54" y="30" width="320" height="40" as="geometry" />
        </mxCell>
        <mxCell id="d246zdA38Hne-XJqFqv3-166" value="DSProdGeneral" style="rounded=1;whiteSpace=wrap;html=1;fillColor=#dae8fc;strokeColor=#6c8ebf;verticalAlign=top;" vertex="1" parent="d246zdA38Hne-XJqFqv3-165">
          <mxGeometry width="320" height="40" as="geometry" />
        </mxCell>
        <mxCell id="d246zdA38Hne-XJqFqv3-167" value="&lt;font style=&quot;font-size: 8px;&quot;&gt;Job Collection1&lt;/font&gt;" style="rounded=1;whiteSpace=wrap;html=1;container=0;fillColor=#f5f5f5;fontColor=#333333;strokeColor=#666666;" vertex="1" parent="d246zdA38Hne-XJqFqv3-165">
          <mxGeometry x="6" y="7.5" width="50" height="25" as="geometry" />
        </mxCell>
        <mxCell id="d246zdA38Hne-XJqFqv3-168" value="&lt;font style=&quot;font-size: 8px;&quot;&gt;Job Collection2&lt;/font&gt;" style="rounded=1;whiteSpace=wrap;html=1;container=0;fillColor=#f5f5f5;fontColor=#333333;strokeColor=#666666;" vertex="1" parent="d246zdA38Hne-XJqFqv3-165">
          <mxGeometry x="61" y="7.5" width="50" height="25" as="geometry" />
        </mxCell>
        <mxCell id="d246zdA38Hne-XJqFqv3-169" value="&lt;font style=&quot;font-size: 8px;&quot;&gt;Job Collection3&lt;/font&gt;" style="rounded=1;whiteSpace=wrap;html=1;container=0;fillColor=#f5f5f5;fontColor=#333333;strokeColor=#666666;" vertex="1" parent="d246zdA38Hne-XJqFqv3-165">
          <mxGeometry x="211" y="7.5" width="50" height="25" as="geometry" />
        </mxCell>
        <mxCell id="d246zdA38Hne-XJqFqv3-170" value="&lt;font style=&quot;font-size: 8px;&quot;&gt;Job Collection4&lt;/font&gt;" style="rounded=1;whiteSpace=wrap;html=1;container=0;fillColor=#f5f5f5;fontColor=#333333;strokeColor=#666666;" vertex="1" parent="d246zdA38Hne-XJqFqv3-165">
          <mxGeometry x="266" y="7.5" width="50" height="25" as="geometry" />
        </mxCell>
      </root>
    </mxGraphModel>
  </diagram>
</mxfile>
